<?xml version="1.0" encoding="utf-8"?>
<svg  version="1.1" x="0px" y="0px" viewBox="0 0 512 512" xmlns="http://www.w3.org/2000/svg" xmlns:xlink="http://www.w3.org/1999/xlink" xml:space="preserve">
  <path fill="currentColor" d="M64,0C28.7,0,0,28.7,0,64v192h256V0H64z"/>
  <path fill="currentColor" d="M512,64c0-35.3-28.7-64-64-64H256v256h256V64z"/>
  <path fill="currentColor" d="M448,512c35.3,0,64-28.7,64-64V256H256v256H448z"/>
  <path fill="currentColor" d="M0,448c0,35.3,28.7,64,64,64h192V256H0V448z"/>
  <path fill="#FFFFFF"      d="M448,179.1V102c0-10.4-3.6-19.4-10.9-27.1C429.4,67.6,420.4,64,410,64h-77.1H179.1h-76.6 c-10.8,0-19.8,3.6-27.1,10.9C67.8,82.6,64,91.6,64,102v112.5v79.2v115.7c0,10.8,3.8,19.8,11.5,27.1c7.3,7.7,16.3,11.5,27.1,11.5 h76.6h153.7H410c10.4,0,19.4-3.8,27.1-11.5c7.3-7.3,10.9-16.3,10.9-27.1V255.7c0-10.4-3.6-19.4-10.9-27.1 c-7.7-7.3-16.7-10.9-27.1-10.9h-77.1H179.1h-38.6v-77.1h38.6h153.7h38.6v38.6H448z M179.1,294.3h153.7h38.6v63.6v13.5h-38.6H179.1 h-38.6v-77.1H179.1z"/>
</svg>
