<?xml version="1.0" encoding="utf-8"?>
<svg  version="1.1" style="enable-background:new 0 0 512 512;" viewBox="0 0 512 512" x="0px" y="0px" xmlns="http://www.w3.org/2000/svg" xmlns:xlink="http://www.w3.org/1999/xlink" xml:space="preserve">
	<polygon points="140.5,371.4 179.1,371.4 332.8,371.4 371.4,371.4 371.4,357.9 371.4,294.3 332.8,294.3 179.1,294.3 140.5,294.3 "/>
	<path d="M448,0H256H64C28.7,0,0,28.7,0,64v192v192c0,35.3,28.7,64,64,64h192h192c35.3,0,64-28.7,64-64V256V64 C512,28.7,483.3,0,448,0z M448,179.1v0.1h-76.6v-38.6h-38.6H179.1h-38.6v77.1h38.6h153.8H410c10.4,0,19.4,3.6,27.1,10.9 c7.3,7.7,10.9,16.7,10.9,27.1v153.7c0,10.8-3.6,19.8-10.9,27.1c-7.7,7.7-16.7,11.5-27.1,11.5h-77.1H179.2h-76.6 c-10.8,0-19.8-3.8-27.1-11.5c-7.7-7.3-11.5-16.3-11.5-27.1V293.7v-79.2V102c0-10.4,3.8-19.4,11.4-27.1C82.7,67.6,91.7,64,102.5,64 h76.6h153.8H410c10.4,0,19.4,3.6,27.1,10.9c7.3,7.7,10.9,16.7,10.9,27.1V179.1z"/>
</svg>
